<svg width="20" height="20" viewBox="0 0 20 20" fill="none" xmlns="http://www.w3.org/2000/svg">
<g clip-path="url(#clip0_401_1038)">
<path d="M19.5879 5.19878C19.3574 4.342 18.6819 3.66665 17.8252 3.43594C16.2602 3.00763 9.99981 3.00763 9.99981 3.00763C9.99981 3.00763 3.73961 3.00763 2.17452 3.41961C1.33438 3.65017 0.642392 4.34216 0.411833 5.19878C0 6.76372 0 10.0092 0 10.0092C0 10.0092 0 13.2711 0.411833 14.8197C0.642545 15.6763 1.3179 16.3518 2.17467 16.5826C3.75609 17.0109 9.99996 17.0109 9.99996 17.0109C9.99996 17.0109 16.2602 17.0109 17.8252 16.5989C18.682 16.3683 19.3574 15.6928 19.5881 14.8362C19.9999 13.2711 19.9999 10.0257 19.9999 10.0257C19.9999 10.0257 20.0164 6.76372 19.5879 5.19878Z" fill="#767F8C"/>
<path d="M8.00781 13.0077L13.2137 10.0093L8.00781 7.01099V13.0077Z" fill="#18191C"/>
</g>
<defs>
<clipPath id="clip0_401_1038">
<rect width="20" height="20" fill="white"/>
</clipPath>
</defs>
</svg>
