<svg width="23" height="22" viewBox="0 0 23 22" fill="none" xmlns="http://www.w3.org/2000/svg">
<path d="M19.75 9.16675C19.75 15.5834 11.5 21.0834 11.5 21.0834C11.5 21.0834 3.25 15.5834 3.25 9.16675C3.25 6.97871 4.11919 4.88029 5.66637 3.33312C7.21354 1.78594 9.31196 0.916748 11.5 0.916748C13.688 0.916748 15.7865 1.78594 17.3336 3.33312C18.8808 4.88029 19.75 6.97871 19.75 9.16675Z" stroke="#C8CCD1" stroke-width="1.5" stroke-linecap="round" stroke-linejoin="round"/>
<path d="M11.5 11.9167C13.0188 11.9167 14.25 10.6855 14.25 9.16675C14.25 7.64797 13.0188 6.41675 11.5 6.41675C9.98122 6.41675 8.75 7.64797 8.75 9.16675C8.75 10.6855 9.98122 11.9167 11.5 11.9167Z" stroke="#C8CCD1" stroke-width="1.5" stroke-linecap="round" stroke-linejoin="round"/>
</svg>
