<svg width="23" height="22" viewBox="0 0 23 22" fill="none" xmlns="http://www.w3.org/2000/svg">
<g clip-path="url(#clip0_146_1936)">
<path d="M11.5 2.0625V19.9375" stroke="#C8CCD1" stroke-width="1.5" stroke-linecap="round" stroke-linejoin="round"/>
<path d="M16.3125 7.5625C16.3125 7.11108 16.2236 6.66408 16.0508 6.24703C15.8781 5.82997 15.6249 5.45102 15.3057 5.13182C14.9865 4.81262 14.6075 4.55941 14.1905 4.38666C13.7734 4.21391 13.3264 4.125 12.875 4.125H9.78125C8.86957 4.125 7.99523 4.48716 7.35057 5.13182C6.70591 5.77648 6.34375 6.65082 6.34375 7.5625C6.34375 8.47418 6.70591 9.34852 7.35057 9.99318C7.99523 10.6378 8.86957 11 9.78125 11H13.5625C14.4742 11 15.3485 11.3622 15.9932 12.0068C16.6378 12.6515 17 13.5258 17 14.4375C17 15.3492 16.6378 16.2235 15.9932 16.8682C15.3485 17.5128 14.4742 17.875 13.5625 17.875H9.4375C8.52582 17.875 7.65148 17.5128 7.00682 16.8682C6.36216 16.2235 6 15.3492 6 14.4375" stroke="#C8CCD1" stroke-width="1.5" stroke-linecap="round" stroke-linejoin="round"/>
</g>
<defs>
<clipPath id="clip0_146_1936">
<rect width="22" height="22" fill="white" transform="translate(0.5)"/>
</clipPath>
</defs>
</svg>
