<svg width="22" height="22" viewBox="0 0 20 20" fill="none" xmlns="http://www.w3.org/2000/svg">
<path d="M11.666 2.5C12.3291 2.5 12.9649 2.76339 13.4338 3.23223C13.9026 3.70107 14.166 4.33696 14.166 5H16.666C17.108 5 17.532 5.17559 17.8445 5.48816C18.1571 5.80072 18.3327 6.22464 18.3327 6.66667V15.8333C18.3327 16.2754 18.1571 16.6993 17.8445 17.0118C17.532 17.3244 17.108 17.5 16.666 17.5H3.33268C2.89065 17.5 2.46673 17.3244 2.15417 17.0118C1.84161 16.6993 1.66602 16.2754 1.66602 15.8333V6.66667C1.66602 6.22464 1.84161 5.80072 2.15417 5.48816C2.46673 5.17559 2.89065 5 3.33268 5H5.83268C5.83268 4.33696 6.09607 3.70107 6.56492 3.23223C7.03376 2.76339 7.66964 2.5 8.33268 2.5H11.666ZM9.16602 10H3.33268V15.8333H16.666V10H10.8327V10.8333C10.8324 11.0457 10.7511 11.25 10.6053 11.4045C10.4595 11.5589 10.2602 11.6519 10.0482 11.6643C9.83615 11.6768 9.62737 11.6078 9.46449 11.4714C9.30161 11.3351 9.19694 11.1417 9.17185 10.9308L9.16602 10.8333V10ZM16.666 6.66667H3.33268V8.33333H16.666V6.66667ZM11.666 4.16667H8.33268C8.12857 4.16669 7.93157 4.24163 7.77904 4.37726C7.62651 4.5129 7.52906 4.69979 7.50518 4.9025L7.49935 5H12.4993C12.4993 4.79589 12.4244 4.59889 12.2888 4.44636C12.1531 4.29383 11.9662 4.19638 11.7635 4.1725L11.666 4.16667Z" fill="#0A65CC"/>
</svg>
