<svg width="22" height="22" viewBox="0 0 22 22" fill="none" xmlns="http://www.w3.org/2000/svg">
<g clip-path="url(#clip0_933_1060)">
<path d="M5.49935 11.9166H1.83268C1.58957 11.9166 1.35641 12.0132 1.1845 12.1851C1.01259 12.357 0.916016 12.5902 0.916016 12.8333V20.1666C0.916016 20.4097 1.01259 20.6429 1.1845 20.8148C1.35641 20.9867 1.58957 21.0833 1.83268 21.0833H5.49935C5.74246 21.0833 5.97562 20.9867 6.14753 20.8148C6.31944 20.6429 6.41602 20.4097 6.41602 20.1666V12.8333C6.41602 12.5902 6.31944 12.357 6.14753 12.1851C5.97562 12.0132 5.74246 11.9166 5.49935 11.9166ZM4.58268 19.25H2.74935V13.75H4.58268V19.25ZM20.166 8.24996H16.4994C16.2562 8.24996 16.0231 8.34654 15.8512 8.51845C15.6793 8.69035 15.5827 8.92351 15.5827 9.16663V20.1666C15.5827 20.4097 15.6793 20.6429 15.8512 20.8148C16.0231 20.9867 16.2562 21.0833 16.4994 21.0833H20.166C20.4091 21.0833 20.6423 20.9867 20.8142 20.8148C20.9861 20.6429 21.0827 20.4097 21.0827 20.1666V9.16663C21.0827 8.92351 20.9861 8.69035 20.8142 8.51845C20.6423 8.34654 20.4091 8.24996 20.166 8.24996ZM19.2494 19.25H17.416V10.0833H19.2494V19.25ZM12.8327 0.916626H9.16602C8.9229 0.916626 8.68974 1.0132 8.51784 1.18511C8.34593 1.35702 8.24935 1.59018 8.24935 1.83329V20.1666C8.24935 20.4097 8.34593 20.6429 8.51784 20.8148C8.68974 20.9867 8.9229 21.0833 9.16602 21.0833H12.8327C13.0758 21.0833 13.309 20.9867 13.4809 20.8148C13.6528 20.6429 13.7494 20.4097 13.7494 20.1666V1.83329C13.7494 1.59018 13.6528 1.35702 13.4809 1.18511C13.309 1.0132 13.0758 0.916626 12.8327 0.916626ZM11.916 19.25H10.0827V2.74996H11.916V19.25Z" fill="#0A65CC"/>
</g>
<defs>
<clipPath id="clip0_933_1060">
<rect width="22" height="22" fill="white"/>
</clipPath>
</defs>
</svg>
