<svg width="72" height="72" viewBox="0 0 72 72" fill="none" xmlns="http://www.w3.org/2000/svg">
<rect width="72" height="72" rx="36" fill="#0A65CC"/>
<g clip-path="url(#clip0_628_628)">
<path opacity="0.2" d="M46.72 25.3733C46.869 25.3298 47.0261 25.3217 47.1789 25.3494C47.3316 25.3772 47.4758 25.4402 47.6 25.5333C47.7242 25.6265 47.825 25.7472 47.8944 25.8861C47.9639 26.025 48 26.1781 48 26.3333V43.6666C48 43.8219 47.9639 43.975 47.8944 44.1139C47.825 44.2527 47.7242 44.3735 47.6 44.4666C47.4758 44.5598 47.3316 44.6227 47.1789 44.6505C47.0261 44.6783 46.869 44.6701 46.72 44.6266L34.9993 41.2081V28.7919L46.72 25.3733Z" fill="white"/>
<path d="M48 26.3333V43.6666C48 43.8219 47.9639 43.975 47.8944 44.1139C47.825 44.2527 47.7242 44.3735 47.6 44.4666C47.4758 44.5598 47.3316 44.6227 47.1789 44.6505C47.0261 44.6783 46.869 44.6701 46.72 44.6266L24.72 38.21C24.5123 38.1494 24.3298 38.0231 24.2 37.85C24.0702 37.6769 24 37.4663 24 37.25V32.75C24 32.5336 24.0702 32.3231 24.2 32.15C24.3298 31.9769 24.5123 31.8506 24.72 31.79L46.72 25.3733C46.869 25.3298 47.0261 25.3217 47.1789 25.3494C47.3316 25.3772 47.4758 25.4402 47.6 25.5333C47.7242 25.6265 47.825 25.7472 47.8944 25.8861C47.9639 26.025 48 26.1781 48 26.3333V26.3333Z" stroke="white" stroke-width="2" stroke-linecap="round" stroke-linejoin="round"/>
<path d="M29 39.4581V44C29 44.2652 29.1054 44.5196 29.2929 44.7071C29.4804 44.8946 29.7348 45 30 45H34C34.2652 45 34.5196 44.8946 34.7071 44.7071C34.8946 44.5196 35 44.2652 35 44V28.7919" stroke="white" stroke-width="2" stroke-linecap="round" stroke-linejoin="round"/>
</g>
<defs>
<clipPath id="clip0_628_628">
<rect width="32" height="32" fill="white" transform="matrix(-1 0 0 1 52 20)"/>
</clipPath>
</defs>
</svg>
