<svg width="72" height="72" viewBox="0 0 72 72" fill="none" xmlns="http://www.w3.org/2000/svg">
<rect width="72" height="72" rx="36" fill="#0A65CC"/>
<path opacity="0.2" d="M45 35.0007L42.2026 27.5411C42.141 27.3768 42.0373 27.2316 41.9018 27.1201C41.7663 27.0086 41.6038 26.9347 41.4307 26.9059L24 24.0007L26.9052 41.4315C26.934 41.6045 27.0079 41.767 27.1194 41.9025C27.2309 42.038 27.3761 42.1418 27.5404 42.2034L35 45.0007L45 35.0007ZM32.0004 34.5C32.0004 34.0056 32.147 33.5222 32.4218 33.1111C32.6965 32.7 33.0869 32.3795 33.5437 32.1903C34.0005 32.0011 34.5032 31.9516 34.9882 32.048C35.4731 32.1445 35.9186 32.3826 36.2682 32.7322C36.6178 33.0819 36.8559 33.5273 36.9524 34.0123C37.0489 34.4972 36.9993 34.9999 36.8101 35.4567C36.6209 35.9135 36.3005 36.304 35.8894 36.5787C35.4782 36.8534 34.9949 37 34.5004 37C34.1721 37 33.847 36.9353 33.5437 36.8097C33.2404 36.6841 32.9648 36.4999 32.7327 36.2678C32.5005 36.0356 32.3164 35.76 32.1907 35.4567C32.0651 35.1534 32.0004 34.8283 32.0004 34.5Z" fill="white"/>
<path d="M32 34.5C32 35.8807 33.1193 37 34.5 37C35.8807 37 37 35.8807 37 34.5C37 33.1193 35.8807 32 34.5 32C33.1193 32 32 33.1193 32 34.5Z" stroke="white" stroke-width="2" stroke-linecap="round" stroke-linejoin="round"/>
<path d="M23.9978 24.0007L32.7305 32.7322" stroke="white" stroke-width="2" stroke-linecap="round" stroke-linejoin="round"/>
<path d="M24 24.0007L26.9051 41.4314C26.934 41.6045 27.0079 41.767 27.1194 41.9025C27.2309 42.038 27.3761 42.1418 27.5404 42.2034L35 45.0007L45 35.0007L42.2026 27.5411C42.141 27.3768 42.0373 27.2316 41.9018 27.1201C41.7663 27.0086 41.6038 26.9347 41.4307 26.9059L24 24.0007Z" stroke="white" stroke-width="2" stroke-linecap="round" stroke-linejoin="round"/>
<path d="M35.0001 45.0007L38.293 48.2936C38.3859 48.3865 38.4961 48.4601 38.6175 48.5104C38.7388 48.5607 38.8688 48.5865 39.0001 48.5865C39.1315 48.5865 39.2615 48.5607 39.3828 48.5104C39.5042 48.4601 39.6144 48.3865 39.7073 48.2936L48.293 39.7078C48.4806 39.5203 48.5859 39.2659 48.5859 39.0007C48.5859 38.7355 48.4806 38.4812 48.293 38.2936L45.0001 35.0007" stroke="white" stroke-width="2" stroke-linecap="round" stroke-linejoin="round"/>
</svg>
